<?xml version="1.0" encoding="iso-8859-1"?>
<!DOCTYPE svg PUBLIC "-//W3C//DTD SVG 1.1 Basic//EN" "http://www.w3.org/Graphics/SVG/1.1/DTD/svg11-basic.dtd">
<svg version="1.1" baseProfile="basic"
   xmlns="http://www.w3.org/2000/svg" xmlns:xlink="http://www.w3.org/1999/xlink" x="0px" y="0px" width="32px" height="32px"
   viewBox="0 0 32 32" xml:space="preserve">
  <path transform="matrix(0.032,0,0,0.032,0,0)" stroke="none" style="fill:#EEEEEE" d="M 874 546 C 868 516 860 487 848 460 C 991 278 919 28 916 17 C 915 14 914 11 912 9 C 912 9 912 9 912 9 C 912 9 912 8 911 8 C 910 6 908 4 905 3 C 904 2 903 2 902 2 C 901 1 899 0 897 0 C 896 0 895 0 893 0 C 892 0 891 0 890 0 C 889 0 888 0 887 0 C 887 0 887 0 887 0 C 721 26 638 189 613 249 C 576 237 536 231 495 231 C 454 231 414 237 377 249 C 352 189 269 26 103 0 C 103 0 103 0 103 0 C 102 0 101 0 100 0 C 99 0 98 0 97 0 C 95 0 94 0 93 0 C 91 0 90 1 88 2 C 87 2 86 2 85 3 C 83 4 81 6 79 8 C 79 8 78 9 78 9 C 78 9 78 9 78 9 C 76 11 75 14 74 17 C 71 27 0 278 143 460 C 121 507 110 560 110 615 C 110 645 113 674 120 702 C 120 703 120 705 121 707 C 163 875 314 1000 495 1000 C 708 1000 881 827 881 615 C 881 595 879 576 876 557 C 876 554 876 550 874 546 z M 823 582 L 825 564 L 829 567 C 831 583 833 599 833 615 C 833 627 832 638 831 649 L 784 607 L 803 603 C 814 602 822 593 823 582 z M 822 413 C 800 377 772 345 740 318 C 760 250 801 143 878 68 C 891 138 905 292 822 413 z M 799 85 C 750 150 718 225 699 289 C 686 281 672 274 658 267 C 675 228 720 138 799 85 z M 525 280 L 525 331 L 510 320 C 501 313 489 313 480 320 L 465 331 L 465 280 C 475 279 485 279 495 279 C 505 279 515 279 525 280 z M 332 267 C 318 274 305 281 292 289 C 272 225 240 150 191 85 C 270 138 315 228 332 267 z M 112 68 C 190 143 231 250 250 318 C 218 345 190 377 168 413 C 85 292 99 138 112 68 z M 165 564 L 167 582 C 168 593 176 602 187 604 L 206 607 L 160 650 C 158 638 158 627 158 615 C 158 599 159 583 161 567 L 165 564 z M 495 952 C 369 952 259 882 201 780 C 261 674 373 608 495 608 C 618 608 729 674 789 780 C 731 882 621 952 495 952 z M 495 560 C 367 560 249 623 177 727 C 175 720 172 713 170 705 L 275 609 C 281 603 284 593 281 585 C 279 576 271 569 262 568 L 213 559 L 209 510 C 208 501 202 493 194 489 C 190 488 186 488 183 488 C 223 389 311 313 417 288 L 417 380 C 417 389 422 398 430 402 C 434 404 437 404 441 404 C 446 404 452 403 456 399 L 495 369 L 535 399 C 542 405 552 406 560 402 C 568 398 573 389 573 380 L 573 288 C 680 313 767 389 808 488 C 804 488 800 488 797 489 C 788 493 782 501 781 510 L 777 559 L 728 568 C 719 569 712 576 709 585 C 706 593 709 603 716 609 L 820 705 C 818 712 815 720 813 727 C 741 623 624 560 495 560 z M 409 661 L 495 746 L 581 661 C 554 653 525 649 495 649 C 466 649 437 653 409 661 z"/>
</svg>